<svg width="25" height="25" viewBox="0 0 25 25" fill="none" xmlns="http://www.w3.org/2000/svg">
<g id="Delete">
<path id="Vector" d="M19.75 6L19.1303 16.0251C18.9719 18.5864 18.8928 19.8671 18.2508 20.7879C17.9333 21.2431 17.5247 21.6273 17.0507 21.916C16.0921 22.5 14.809 22.5 12.2427 22.5C9.67312 22.5 8.3883 22.5 7.42905 21.9149C6.9548 21.6257 6.546 21.2408 6.22868 20.7848C5.58688 19.8626 5.50945 18.5801 5.35461 16.0152L4.75 6" stroke="#DA1E28" stroke-width="1.5" stroke-linecap="round"/>
<path id="Vector_2" d="M3.25 6H21.25M16.3057 6L15.6231 4.59173C15.1696 3.65626 14.9428 3.18852 14.5517 2.89681C14.465 2.8321 14.3731 2.77454 14.277 2.7247C13.8439 2.5 13.3241 2.5 12.2845 2.5C11.2188 2.5 10.686 2.5 10.2457 2.73412C10.1481 2.78601 10.055 2.8459 9.96729 2.91317C9.57164 3.2167 9.35063 3.70155 8.90861 4.67126L8.30292 6" stroke="#DA1E28" stroke-width="1.5" stroke-linecap="round"/>
<path id="Vector_3" d="M9.75 17V11" stroke="white" stroke-width="1.5" stroke-linecap="round"/>
<path id="Vector_4" d="M14.75 17V11" stroke="white" stroke-width="1.5" stroke-linecap="round"/>
</g>
</svg>
