<svg width="25" height="24" viewBox="0 0 25 24" fill="none" xmlns="http://www.w3.org/2000/svg">
<g id="upload-03">
<path id="Vector" d="M7.4375 10C6.74657 10.0051 6.33081 10.0263 5.99965 10.114C4.49243 10.5131 3.46053 11.8639 3.50116 13.3847C3.51293 13.8252 3.68062 14.3696 4.016 15.4585C4.82314 18.079 6.17963 20.3539 9.21845 20.8997C9.77704 21 10.4056 21 11.6627 21H13.3372C14.5943 21 15.2229 21 15.7815 20.8997C18.8203 20.3539 20.1768 18.079 20.9839 15.4585C21.3193 14.3696 21.487 13.8252 21.4988 13.3847C21.5394 11.8639 20.5075 10.5131 19.0003 10.114C18.6691 10.0263 18.2534 10.0051 17.5625 10" stroke="#525252" stroke-width="1.5" stroke-linecap="round"/>
<path id="Vector_2" d="M12.5 3V14M12.5 3C12.9683 3 13.3243 3.4381 14.0364 4.3143L15 5.5M12.5 3C12.0316 3 11.6756 3.4381 10.9635 4.3143L10 5.5" stroke="#525252" stroke-width="1.5" stroke-linecap="round" stroke-linejoin="round"/>
</g>
</svg>
